# File produced by Open Asset Import Library (http://www.assimp.sf.net)
# (assimp v3.1.95221606)

mtllib Wall_Neutral.mtl

# vertex positions
v -20.082584 0.000281 -5.715702
v -19.144014 0.000281 -5.715702
v -19.144014 0.000281 -5.573836
v -20.082584 0.000281 -5.573836
v -18.205444 0.000281 -5.715702
v -18.205444 0.000281 -5.573836
v -17.266874 0.000281 -5.715702
v -17.266874 0.000281 -5.573836
v -16.328304 0.000281 -5.715702
v -16.328304 0.000281 -5.573836
v -15.389734 0.000281 -5.715702
v -15.389734 0.000281 -5.573836
v -14.451164 0.000281 -5.715702
v -14.451164 0.000281 -5.573836
v -13.512594 0.000281 -5.715702
v -13.512594 0.000281 -5.573836
v -12.574024 0.000281 -5.715702
v -12.574024 0.000281 -5.573836
v -19.144014 0.938851 -5.573836
v -20.082584 0.938851 -5.573836
v -18.205444 0.938851 -5.573836
v -17.266874 0.938851 -5.573836
v -16.328304 0.938851 -5.573836
v -15.389734 0.938851 -5.573836
v -14.451164 0.938851 -5.573836
v -13.512594 0.938851 -5.573836
v -12.574024 0.938851 -5.573836
v -19.144014 1.877421 -5.573836
v -20.082584 1.877421 -5.573836
v -18.205444 1.877421 -5.573836
v -17.266874 1.877421 -5.573836
v -16.328304 1.877421 -5.573836
v -15.389734 1.877421 -5.573836
v -14.451164 1.877421 -5.573836
v -13.512594 1.877421 -5.573836
v -12.574024 1.877421 -5.573836
v -20.082584 2.815991 -5.573836
v -19.144014 2.815991 -5.573836
v -19.144014 3.754561 -5.573836
v -20.082584 3.754561 -5.573836
v -18.205444 2.815991 -5.573836
v -18.205444 3.754561 -5.573836
v -17.266874 2.815991 -5.573836
v -17.266874 3.754561 -5.573836
v -16.328304 2.815991 -5.573836
v -16.328304 3.754561 -5.573836
v -15.389734 2.815991 -5.573836
v -15.389734 3.754561 -5.573836
v -14.451164 2.815991 -5.573836
v -14.451164 3.754561 -5.573836
v -13.512594 2.815991 -5.573836
v -13.512594 3.754561 -5.573836
v -12.574024 2.815991 -5.573836
v -12.574024 3.754561 -5.573836
v -19.144014 4.693131 -5.573836
v -20.082584 4.693131 -5.573836
v -18.205444 4.693131 -5.573836
v -17.266874 4.693131 -5.573836
v -16.328304 4.693131 -5.573836
v -15.389734 4.693131 -5.573836
v -14.451164 4.693131 -5.573836
v -13.512594 4.693131 -5.573836
v -12.574024 4.693131 -5.573836
v -19.144014 5.631701 -5.573836
v -20.082584 5.631701 -5.573836
v -18.205444 5.631701 -5.573836
v -17.266874 5.631701 -5.573836
v -16.328304 5.631701 -5.573836
v -15.389734 5.631701 -5.573836
v -14.451164 5.631701 -5.573836
v -13.512594 5.631701 -5.573836
v -12.574024 5.631701 -5.573836
v -19.144014 6.570271 -5.573836
v -20.082584 6.570271 -5.573836
v -18.205444 6.570271 -5.573836
v -17.266874 6.570271 -5.573836
v -16.328304 6.570271 -5.573836
v -15.389734 6.570271 -5.573836
v -14.451164 6.570271 -5.573836
v -13.512594 6.570271 -5.573836
v -12.574024 6.570271 -5.573836
v -19.144014 7.508841 -5.573836
v -20.082584 7.508841 -5.573836
v -18.205444 7.508841 -5.573836
v -17.266874 7.508841 -5.573836
v -16.328304 7.508841 -5.573836
v -15.389734 7.508841 -5.573836
v -14.451164 7.508841 -5.573836
v -13.512594 7.508841 -5.573836
v -12.574024 7.508841 -5.573836
v -19.144014 7.508842 -5.715702
v -20.082584 7.508842 -5.715702
v -18.205444 7.508842 -5.715702
v -17.266874 7.508842 -5.715702
v -16.328304 7.508842 -5.715702
v -15.389734 7.508842 -5.715702
v -14.451164 7.508842 -5.715702
v -13.512594 7.508842 -5.715702
v -12.574024 7.508842 -5.715702
v -19.144014 6.570271 -5.715702
v -20.082584 6.570271 -5.715702
v -18.205444 6.570271 -5.715702
v -17.266874 6.570271 -5.715702
v -16.328304 6.570271 -5.715702
v -15.389734 6.570271 -5.715702
v -14.451164 6.570271 -5.715702
v -13.512594 6.570271 -5.715702
v -12.574024 6.570271 -5.715702
v -19.144014 5.631701 -5.715702
v -20.082584 5.631701 -5.715702
v -18.205444 5.631701 -5.715702
v -17.266874 5.631701 -5.715702
v -16.328304 5.631701 -5.715702
v -15.389734 5.631701 -5.715702
v -14.451164 5.631701 -5.715702
v -13.512594 5.631701 -5.715702
v -12.574024 5.631701 -5.715702
v -19.144014 4.693131 -5.715702
v -20.082584 4.693131 -5.715702
v -18.205444 4.693131 -5.715702
v -17.266874 4.693131 -5.715702
v -16.328304 4.693131 -5.715702
v -15.389734 4.693131 -5.715702
v -14.451164 4.693131 -5.715702
v -13.512594 4.693131 -5.715702
v -12.574024 4.693131 -5.715702
v -19.144014 3.754561 -5.715702
v -20.082584 3.754561 -5.715702
v -18.205444 3.754561 -5.715702
v -17.266874 3.754561 -5.715702
v -16.328304 3.754561 -5.715702
v -15.389734 3.754561 -5.715702
v -14.451164 3.754561 -5.715702
v -13.512594 3.754561 -5.715702
v -12.574024 3.754561 -5.715702
v -19.144014 2.815991 -5.715702
v -20.082584 2.815991 -5.715702
v -18.205444 2.815991 -5.715702
v -17.266874 2.815991 -5.715702
v -16.328304 2.815991 -5.715702
v -15.389734 2.815991 -5.715702
v -14.451164 2.815991 -5.715702
v -13.512594 2.815991 -5.715702
v -12.574024 2.815991 -5.715702
v -19.144014 1.877421 -5.715702
v -20.082584 1.877421 -5.715702
v -18.205444 1.877421 -5.715702
v -17.266874 1.877421 -5.715702
v -16.328304 1.877421 -5.715702
v -15.389734 1.877421 -5.715702
v -14.451164 1.877421 -5.715702
v -13.512594 1.877421 -5.715702
v -12.574024 1.877421 -5.715702
v -19.144014 0.938851 -5.715702
v -20.082584 0.938851 -5.715702
v -18.205444 0.938851 -5.715702
v -17.266874 0.938851 -5.715702
v -16.328304 0.938851 -5.715702
v -15.389734 0.938851 -5.715702
v -14.451164 0.938851 -5.715702
v -13.512594 0.938851 -5.715702
v -12.574024 0.938851 -5.715702
v -20.082584 1.877421 -5.262162
v -19.144014 1.877421 -5.262162
v -19.144014 2.815991 -5.262162
v -20.082584 2.815991 -5.262162
v -18.205444 1.877421 -5.262162
v -18.205444 2.815991 -5.262162
v -17.266874 1.877421 -5.262162
v -17.266874 2.815991 -5.262162
v -16.328304 1.877421 -5.262162
v -16.328304 2.815991 -5.262162
v -15.389734 1.877421 -5.262162
v -15.389734 2.815991 -5.262162
v -14.451164 1.877421 -5.262162
v -14.451164 2.815991 -5.262162
v -13.512594 1.877421 -5.262162
v -13.512594 2.815991 -5.262162
v -12.574024 1.877421 -5.262162
v -12.574024 2.815991 -5.262162

# UV coordinates
vt 0.001852 0.498144
vt 0.001852 0.436125
vt 0.011226 0.436125
vt 0.011226 0.498144
vt 0.001852 0.374106
vt 0.011226 0.374106
vt 0.001852 0.312088
vt 0.011226 0.312088
vt 0.001852 0.250069
vt 0.011226 0.250069
vt 0.001852 0.188050
vt 0.011226 0.188050
vt 0.001852 0.126031
vt 0.011226 0.126031
vt 0.001852 0.064012
vt 0.011226 0.064012
vt 0.001852 0.001993
vt 0.011226 0.001993
vt 0.018338 0.498145
vt 0.018338 0.436126
vt 0.080357 0.436126
vt 0.080357 0.498145
vt 0.018338 0.374107
vt 0.080357 0.374107
vt 0.018338 0.312088
vt 0.080357 0.312088
vt 0.018338 0.250068
vt 0.080357 0.250068
vt 0.018338 0.188049
vt 0.080357 0.188049
vt 0.018338 0.126030
vt 0.080357 0.126030
vt 0.018338 0.064011
vt 0.080357 0.064011
vt 0.018338 0.001992
vt 0.080357 0.001992
vt 0.142376 0.436126
vt 0.142376 0.498145
vt 0.142376 0.374107
vt 0.142376 0.312088
vt 0.142376 0.250068
vt 0.142376 0.188049
vt 0.142376 0.126030
vt 0.142376 0.064011
vt 0.142376 0.001992
vt 0.527150 0.498145
vt 0.527150 0.436126
vt 0.589169 0.436126
vt 0.589169 0.498145
vt 0.527150 0.374107
vt 0.589169 0.374107
vt 0.527150 0.312088
vt 0.589169 0.312088
vt 0.527150 0.250068
vt 0.589169 0.250068
vt 0.527150 0.188049
vt 0.589169 0.188049
vt 0.527150 0.126030
vt 0.589169 0.126030
vt 0.527150 0.064011
vt 0.589169 0.064011
vt 0.527150 0.001992
vt 0.589169 0.001992
vt 0.651188 0.436126
vt 0.651188 0.498145
vt 0.651188 0.374107
vt 0.651188 0.312088
vt 0.651188 0.250068
vt 0.651188 0.188049
vt 0.651188 0.126030
vt 0.651188 0.064011
vt 0.651188 0.001992
vt 0.713207 0.436126
vt 0.713207 0.498145
vt 0.713207 0.374107
vt 0.713207 0.312088
vt 0.713207 0.250068
vt 0.713207 0.188049
vt 0.713207 0.126030
vt 0.713207 0.064011
vt 0.713207 0.001992
vt 0.775227 0.436126
vt 0.775227 0.498145
vt 0.775227 0.374107
vt 0.775227 0.312088
vt 0.775227 0.250068
vt 0.775227 0.188049
vt 0.775227 0.126030
vt 0.775227 0.064011
vt 0.775227 0.001992
vt 0.837246 0.436126
vt 0.837246 0.498145
vt 0.837246 0.374107
vt 0.837246 0.312088
vt 0.837246 0.250068
vt 0.837246 0.188049
vt 0.837246 0.126030
vt 0.837246 0.064011
vt 0.837246 0.001992
vt 0.844199 0.498145
vt 0.844199 0.436126
vt 0.853574 0.436126
vt 0.853574 0.498145
vt 0.844200 0.374107
vt 0.853574 0.374107
vt 0.844200 0.312089
vt 0.853574 0.312089
vt 0.844200 0.250070
vt 0.853574 0.250070
vt 0.844200 0.188051
vt 0.853574 0.188051
vt 0.844200 0.126032
vt 0.853574 0.126032
vt 0.844200 0.064014
vt 0.853574 0.064014
vt 0.844200 0.001995
vt 0.853574 0.001995
vt 0.431577 0.501855
vt 0.493596 0.501855
vt 0.493596 0.563874
vt 0.431577 0.563874
vt 0.555615 0.501855
vt 0.555615 0.563874
vt 0.617634 0.501855
vt 0.617634 0.563874
vt 0.679653 0.501855
vt 0.679653 0.563874
vt 0.741672 0.501855
vt 0.741672 0.563874
vt 0.803691 0.501855
vt 0.803691 0.563874
vt 0.865711 0.501855
vt 0.865711 0.563874
vt 0.927730 0.501855
vt 0.927730 0.563874
vt 0.493596 0.625893
vt 0.431577 0.625893
vt 0.555615 0.625893
vt 0.617634 0.625893
vt 0.679653 0.625893
vt 0.741672 0.625893
vt 0.803691 0.625893
vt 0.865711 0.625893
vt 0.927730 0.625893
vt 0.493596 0.687913
vt 0.431577 0.687913
vt 0.555615 0.687913
vt 0.617634 0.687913
vt 0.679653 0.687913
vt 0.741672 0.687913
vt 0.803691 0.687913
vt 0.865711 0.687913
vt 0.927730 0.687913
vt 0.493596 0.749932
vt 0.431577 0.749932
vt 0.555615 0.749932
vt 0.617634 0.749932
vt 0.679653 0.749932
vt 0.741672 0.749932
vt 0.803691 0.749932
vt 0.865711 0.749932
vt 0.927730 0.749932
vt 0.493596 0.811951
vt 0.431577 0.811951
vt 0.555615 0.811951
vt 0.617634 0.811951
vt 0.679653 0.811951
vt 0.741672 0.811951
vt 0.803691 0.811951
vt 0.865711 0.811951
vt 0.927730 0.811951
vt 0.493596 0.873970
vt 0.431577 0.873970
vt 0.555615 0.873970
vt 0.617634 0.873970
vt 0.679653 0.873970
vt 0.741672 0.873970
vt 0.803691 0.873970
vt 0.865711 0.873970
vt 0.927730 0.873970
vt 0.493596 0.935989
vt 0.431577 0.935989
vt 0.555615 0.935989
vt 0.617634 0.935989
vt 0.679653 0.935989
vt 0.741672 0.935989
vt 0.803691 0.935989
vt 0.865711 0.935989
vt 0.927730 0.935989
vt 0.493596 0.998008
vt 0.431577 0.998008
vt 0.555615 0.998008
vt 0.617634 0.998008
vt 0.679653 0.998008
vt 0.741672 0.998008
vt 0.803691 0.998008
vt 0.865711 0.998008
vt 0.927730 0.998008
vt 0.425874 0.935989
vt 0.425874 0.998008
vt 0.416499 0.998008
vt 0.416499 0.935989
vt 0.425874 0.873970
vt 0.416499 0.873970
vt 0.425874 0.811951
vt 0.416499 0.811951
vt 0.425874 0.749932
vt 0.416499 0.749932
vt 0.425874 0.687913
vt 0.416500 0.687913
vt 0.425874 0.625895
vt 0.416500 0.625895
vt 0.425874 0.563876
vt 0.416500 0.563876
vt 0.425874 0.501857
vt 0.416500 0.501857
vt 0.360232 0.998008
vt 0.360232 0.935989
vt 0.369607 0.935989
vt 0.369606 0.998008
vt 0.360232 0.873970
vt 0.369607 0.873970
vt 0.360232 0.811951
vt 0.369607 0.811951
vt 0.360232 0.749933
vt 0.369607 0.749933
vt 0.360232 0.687914
vt 0.369607 0.687914
vt 0.360232 0.625895
vt 0.369607 0.625895
vt 0.360232 0.563876
vt 0.369607 0.563876
vt 0.360233 0.501857
vt 0.369607 0.501857
vt 0.180665 0.929809
vt 0.180648 0.867465
vt 0.242974 0.867436
vt 0.242978 0.929782
vt 0.180611 0.805121
vt 0.242950 0.805091
vt 0.180580 0.742778
vt 0.242922 0.742748
vt 0.180549 0.680435
vt 0.242892 0.680405
vt 0.180518 0.618092
vt 0.242862 0.618061
vt 0.180486 0.555751
vt 0.242834 0.555716
vt 0.180447 0.493415
vt 0.242813 0.493366
vt 0.180381 0.431102
vt 0.242738 0.430997
vt 0.159965 0.929819
vt 0.159948 0.867494
vt 0.263675 0.867464
vt 0.263672 0.929809
vt 0.159962 0.992161
vt 0.180662 0.992153
vt 0.159909 0.805167
vt 0.263652 0.805119
vt 0.159877 0.742825
vt 0.263624 0.742775
vt 0.159846 0.680483
vt 0.263594 0.680432
vt 0.159815 0.618140
vt 0.263565 0.618089
vt 0.159783 0.555799
vt 0.263537 0.555744
vt 0.159743 0.493463
vt 0.263516 0.493396
vt 0.159671 0.431146
vt 0.263448 0.431012
vt 0.263452 0.368657
vt 0.242753 0.368666

# vertex normals
vn 0.000000 -1.000000 0.000000
vn 0.000000 0.000000 1.000000
vn 0.000000 1.000000 0.000004
vn 0.000000 0.000000 -1.000000
vn 1.000000 0.000000 0.000000
vn -1.000000 0.000000 0.000000
vn 0.000000 1.000000 0.000000

# Mesh
g DefaultWall_DefaultWall
usemtl HospitalWallSG
f 4/4/1 1/1/1 2/2/1
f 2/2/1 3/3/1 4/4/1
f 3/3/1 2/2/1 5/5/1
f 5/5/1 6/6/1 3/3/1
f 6/6/1 5/5/1 7/7/1
f 7/7/1 8/8/1 6/6/1
f 8/8/1 7/7/1 9/9/1
f 9/9/1 10/10/1 8/8/1
f 10/10/1 9/9/1 11/11/1
f 11/11/1 12/12/1 10/10/1
f 12/12/1 11/11/1 13/13/1
f 13/13/1 14/14/1 12/12/1
f 14/14/1 13/13/1 15/15/1
f 15/15/1 16/16/1 14/14/1
f 16/16/1 15/15/1 17/17/1
f 17/17/1 18/18/1 16/16/1
f 20/22/2 4/19/2 3/20/2
f 3/20/2 19/21/2 20/22/2
f 19/21/2 3/20/2 6/23/2
f 6/23/2 21/24/2 19/21/2
f 21/24/2 6/23/2 8/25/2
f 8/25/2 22/26/2 21/24/2
f 22/26/2 8/25/2 10/27/2
f 10/27/2 23/28/2 22/26/2
f 23/28/2 10/27/2 12/29/2
f 12/29/2 24/30/2 23/28/2
f 24/30/2 12/29/2 14/31/2
f 14/31/2 25/32/2 24/30/2
f 25/32/2 14/31/2 16/33/2
f 16/33/2 26/34/2 25/32/2
f 26/34/2 16/33/2 18/35/2
f 18/35/2 27/36/2 26/34/2
f 29/38/2 20/22/2 19/21/2
f 19/21/2 28/37/2 29/38/2
f 28/37/2 19/21/2 21/24/2
f 21/24/2 30/39/2 28/37/2
f 30/39/2 21/24/2 22/26/2
f 22/26/2 31/40/2 30/39/2
f 31/40/2 22/26/2 23/28/2
f 23/28/2 32/41/2 31/40/2
f 32/41/2 23/28/2 24/30/2
f 24/30/2 33/42/2 32/41/2
f 33/42/2 24/30/2 25/32/2
f 25/32/2 34/43/2 33/42/2
f 34/43/2 25/32/2 26/34/2
f 26/34/2 35/44/2 34/43/2
f 35/44/2 26/34/2 27/36/2
f 27/36/2 36/45/2 35/44/2
f 40/49/2 37/46/2 38/47/2
f 38/47/2 39/48/2 40/49/2
f 39/48/2 38/47/2 41/50/2
f 41/50/2 42/51/2 39/48/2
f 42/51/2 41/50/2 43/52/2
f 43/52/2 44/53/2 42/51/2
f 44/53/2 43/52/2 45/54/2
f 45/54/2 46/55/2 44/53/2
f 46/55/2 45/54/2 47/56/2
f 47/56/2 48/57/2 46/55/2
f 48/57/2 47/56/2 49/58/2
f 49/58/2 50/59/2 48/57/2
f 50/59/2 49/58/2 51/60/2
f 51/60/2 52/61/2 50/59/2
f 52/61/2 51/60/2 53/62/2
f 53/62/2 54/63/2 52/61/2
f 56/65/2 40/49/2 39/48/2
f 39/48/2 55/64/2 56/65/2
f 55/64/2 39/48/2 42/51/2
f 42/51/2 57/66/2 55/64/2
f 57/66/2 42/51/2 44/53/2
f 44/53/2 58/67/2 57/66/2
f 58/67/2 44/53/2 46/55/2
f 46/55/2 59/68/2 58/67/2
f 59/68/2 46/55/2 48/57/2
f 48/57/2 60/69/2 59/68/2
f 60/69/2 48/57/2 50/59/2
f 50/59/2 61/70/2 60/69/2
f 61/70/2 50/59/2 52/61/2
f 52/61/2 62/71/2 61/70/2
f 62/71/2 52/61/2 54/63/2
f 54/63/2 63/72/2 62/71/2
f 65/74/2 56/65/2 55/64/2
f 55/64/2 64/73/2 65/74/2
f 64/73/2 55/64/2 57/66/2
f 57/66/2 66/75/2 64/73/2
f 66/75/2 57/66/2 58/67/2
f 58/67/2 67/76/2 66/75/2
f 67/76/2 58/67/2 59/68/2
f 59/68/2 68/77/2 67/76/2
f 68/77/2 59/68/2 60/69/2
f 60/69/2 69/78/2 68/77/2
f 69/78/2 60/69/2 61/70/2
f 61/70/2 70/79/2 69/78/2
f 70/79/2 61/70/2 62/71/2
f 62/71/2 71/80/2 70/79/2
f 71/80/2 62/71/2 63/72/2
f 63/72/2 72/81/2 71/80/2
f 74/83/2 65/74/2 64/73/2
f 64/73/2 73/82/2 74/83/2
f 73/82/2 64/73/2 66/75/2
f 66/75/2 75/84/2 73/82/2
f 75/84/2 66/75/2 67/76/2
f 67/76/2 76/85/2 75/84/2
f 76/85/2 67/76/2 68/77/2
f 68/77/2 77/86/2 76/85/2
f 77/86/2 68/77/2 69/78/2
f 69/78/2 78/87/2 77/86/2
f 78/87/2 69/78/2 70/79/2
f 70/79/2 79/88/2 78/87/2
f 79/88/2 70/79/2 71/80/2
f 71/80/2 80/89/2 79/88/2
f 80/89/2 71/80/2 72/81/2
f 72/81/2 81/90/2 80/89/2
f 83/92/2 74/83/2 73/82/2
f 73/82/2 82/91/2 83/92/2
f 82/91/2 73/82/2 75/84/2
f 75/84/2 84/93/2 82/91/2
f 84/93/2 75/84/2 76/85/2
f 76/85/2 85/94/2 84/93/2
f 85/94/2 76/85/2 77/86/2
f 77/86/2 86/95/2 85/94/2
f 86/95/2 77/86/2 78/87/2
f 78/87/2 87/96/2 86/95/2
f 87/96/2 78/87/2 79/88/2
f 79/88/2 88/97/2 87/96/2
f 88/97/2 79/88/2 80/89/2
f 80/89/2 89/98/2 88/97/2
f 89/98/2 80/89/2 81/90/2
f 81/90/2 90/99/2 89/98/2
f 92/103/3 83/100/3 82/101/3
f 82/101/3 91/102/3 92/103/3
f 91/102/3 82/101/3 84/104/3
f 84/104/3 93/105/3 91/102/3
f 93/105/3 84/104/3 85/106/3
f 85/106/3 94/107/3 93/105/3
f 94/107/3 85/106/3 86/108/3
f 86/108/3 95/109/3 94/107/3
f 95/109/3 86/108/3 87/110/3
f 87/110/3 96/111/3 95/109/3
f 96/111/3 87/110/3 88/112/3
f 88/112/3 97/113/3 96/111/3
f 97/113/3 88/112/3 89/114/3
f 89/114/3 98/115/3 97/113/3
f 98/115/3 89/114/3 90/116/3
f 90/116/3 99/117/3 98/115/3
f 101/121/4 92/118/4 91/119/4
f 91/119/4 100/120/4 101/121/4
f 100/120/4 91/119/4 93/122/4
f 93/122/4 102/123/4 100/120/4
f 102/123/4 93/122/4 94/124/4
f 94/124/4 103/125/4 102/123/4
f 103/125/4 94/124/4 95/126/4
f 95/126/4 104/127/4 103/125/4
f 104/127/4 95/126/4 96/128/4
f 96/128/4 105/129/4 104/127/4
f 105/129/4 96/128/4 97/130/4
f 97/130/4 106/131/4 105/129/4
f 106/131/4 97/130/4 98/132/4
f 98/132/4 107/133/4 106/131/4
f 107/133/4 98/132/4 99/134/4
f 99/134/4 108/135/4 107/133/4
f 110/137/4 101/121/4 100/120/4
f 100/120/4 109/136/4 110/137/4
f 109/136/4 100/120/4 102/123/4
f 102/123/4 111/138/4 109/136/4
f 111/138/4 102/123/4 103/125/4
f 103/125/4 112/139/4 111/138/4
f 112/139/4 103/125/4 104/127/4
f 104/127/4 113/140/4 112/139/4
f 113/140/4 104/127/4 105/129/4
f 105/129/4 114/141/4 113/140/4
f 114/141/4 105/129/4 106/131/4
f 106/131/4 115/142/4 114/141/4
f 115/142/4 106/131/4 107/133/4
f 107/133/4 116/143/4 115/142/4
f 116/143/4 107/133/4 108/135/4
f 108/135/4 117/144/4 116/143/4
f 119/146/4 110/137/4 109/136/4
f 109/136/4 118/145/4 119/146/4
f 118/145/4 109/136/4 111/138/4
f 111/138/4 120/147/4 118/145/4
f 120/147/4 111/138/4 112/139/4
f 112/139/4 121/148/4 120/147/4
f 121/148/4 112/139/4 113/140/4
f 113/140/4 122/149/4 121/148/4
f 122/149/4 113/140/4 114/141/4
f 114/141/4 123/150/4 122/149/4
f 123/150/4 114/141/4 115/142/4
f 115/142/4 124/151/4 123/150/4
f 124/151/4 115/142/4 116/143/4
f 116/143/4 125/152/4 124/151/4
f 125/152/4 116/143/4 117/144/4
f 117/144/4 126/153/4 125/152/4
f 128/155/4 119/146/4 118/145/4
f 118/145/4 127/154/4 128/155/4
f 127/154/4 118/145/4 120/147/4
f 120/147/4 129/156/4 127/154/4
f 129/156/4 120/147/4 121/148/4
f 121/148/4 130/157/4 129/156/4
f 130/157/4 121/148/4 122/149/4
f 122/149/4 131/158/4 130/157/4
f 131/158/4 122/149/4 123/150/4
f 123/150/4 132/159/4 131/158/4
f 132/159/4 123/150/4 124/151/4
f 124/151/4 133/160/4 132/159/4
f 133/160/4 124/151/4 125/152/4
f 125/152/4 134/161/4 133/160/4
f 134/161/4 125/152/4 126/153/4
f 126/153/4 135/162/4 134/161/4
f 137/164/4 128/155/4 127/154/4
f 127/154/4 136/163/4 137/164/4
f 136/163/4 127/154/4 129/156/4
f 129/156/4 138/165/4 136/163/4
f 138/165/4 129/156/4 130/157/4
f 130/157/4 139/166/4 138/165/4
f 139/166/4 130/157/4 131/158/4
f 131/158/4 140/167/4 139/166/4
f 140/167/4 131/158/4 132/159/4
f 132/159/4 141/168/4 140/167/4
f 141/168/4 132/159/4 133/160/4
f 133/160/4 142/169/4 141/168/4
f 142/169/4 133/160/4 134/161/4
f 134/161/4 143/170/4 142/169/4
f 143/170/4 134/161/4 135/162/4
f 135/162/4 144/171/4 143/170/4
f 146/173/4 137/164/4 136/163/4
f 136/163/4 145/172/4 146/173/4
f 145/172/4 136/163/4 138/165/4
f 138/165/4 147/174/4 145/172/4
f 147/174/4 138/165/4 139/166/4
f 139/166/4 148/175/4 147/174/4
f 148/175/4 139/166/4 140/167/4
f 140/167/4 149/176/4 148/175/4
f 149/176/4 140/167/4 141/168/4
f 141/168/4 150/177/4 149/176/4
f 150/177/4 141/168/4 142/169/4
f 142/169/4 151/178/4 150/177/4
f 151/178/4 142/169/4 143/170/4
f 143/170/4 152/179/4 151/178/4
f 152/179/4 143/170/4 144/171/4
f 144/171/4 153/180/4 152/179/4
f 155/182/4 146/173/4 145/172/4
f 145/172/4 154/181/4 155/182/4
f 154/181/4 145/172/4 147/174/4
f 147/174/4 156/183/4 154/181/4
f 156/183/4 147/174/4 148/175/4
f 148/175/4 157/184/4 156/183/4
f 157/184/4 148/175/4 149/176/4
f 149/176/4 158/185/4 157/184/4
f 158/185/4 149/176/4 150/177/4
f 150/177/4 159/186/4 158/185/4
f 159/186/4 150/177/4 151/178/4
f 151/178/4 160/187/4 159/186/4
f 160/187/4 151/178/4 152/179/4
f 152/179/4 161/188/4 160/187/4
f 161/188/4 152/179/4 153/180/4
f 153/180/4 162/189/4 161/188/4
f 1/191/4 155/182/4 154/181/4
f 154/181/4 2/190/4 1/191/4
f 2/190/4 154/181/4 156/183/4
f 156/183/4 5/192/4 2/190/4
f 5/192/4 156/183/4 157/184/4
f 157/184/4 7/193/4 5/192/4
f 7/193/4 157/184/4 158/185/4
f 158/185/4 9/194/4 7/193/4
f 9/194/4 158/185/4 159/186/4
f 159/186/4 11/195/4 9/194/4
f 11/195/4 159/186/4 160/187/4
f 160/187/4 13/196/4 11/195/4
f 13/196/4 160/187/4 161/188/4
f 161/188/4 15/197/4 13/196/4
f 15/197/4 161/188/4 162/189/4
f 162/189/4 17/198/4 15/197/4
f 81/202/5 108/199/5 99/200/5
f 99/200/5 90/201/5 81/202/5
f 72/204/5 117/203/5 108/199/5
f 108/199/5 81/202/5 72/204/5
f 63/206/5 126/205/5 117/203/5
f 117/203/5 72/204/5 63/206/5
f 54/208/5 135/207/5 126/205/5
f 126/205/5 63/206/5 54/208/5
f 53/210/5 144/209/5 135/207/5
f 135/207/5 54/208/5 53/210/5
f 36/212/5 153/211/5 144/209/5
f 144/209/5 53/210/5 36/212/5
f 27/214/5 162/213/5 153/211/5
f 153/211/5 36/212/5 27/214/5
f 18/216/5 17/215/5 162/213/5
f 162/213/5 27/214/5 18/216/5
f 83/220/6 92/217/6 101/218/6
f 101/218/6 74/219/6 83/220/6
f 74/219/6 101/218/6 110/221/6
f 110/221/6 65/222/6 74/219/6
f 65/222/6 110/221/6 119/223/6
f 119/223/6 56/224/6 65/222/6
f 56/224/6 119/223/6 128/225/6
f 128/225/6 40/226/6 56/224/6
f 40/226/6 128/225/6 137/227/6
f 137/227/6 37/228/6 40/226/6
f 37/228/6 137/227/6 146/229/6
f 146/229/6 29/230/6 37/228/6
f 29/230/6 146/229/6 155/231/6
f 155/231/6 20/232/6 29/230/6
f 20/232/6 155/231/6 1/233/6
f 1/233/6 4/234/6 20/232/6

# Mesh
g DefaultWall_DefaultWall
usemtl HospitalRailSG
f 166/238/2 163/235/2 164/236/2
f 164/236/2 165/237/2 166/238/2
f 165/237/2 164/236/2 167/239/2
f 167/239/2 168/240/2 165/237/2
f 168/240/2 167/239/2 169/241/2
f 169/241/2 170/242/2 168/240/2
f 170/242/2 169/241/2 171/243/2
f 171/243/2 172/244/2 170/242/2
f 172/244/2 171/243/2 173/245/2
f 173/245/2 174/246/2 172/244/2
f 174/246/2 173/245/2 175/247/2
f 175/247/2 176/248/2 174/246/2
f 176/248/2 175/247/2 177/249/2
f 177/249/2 178/250/2 176/248/2
f 178/250/2 177/249/2 179/251/2
f 179/251/2 180/252/2 178/250/2
f 163/235/1 29/253/1 28/254/1
f 28/254/1 164/236/1 163/235/1
f 165/237/7 38/255/7 37/256/7
f 37/256/7 166/238/7 165/237/7
f 166/258/6 37/257/6 29/253/6
f 29/253/6 163/235/6 166/258/6
f 164/236/1 28/254/1 30/259/1
f 30/259/1 167/239/1 164/236/1
f 168/240/7 41/260/7 38/255/7
f 38/255/7 165/237/7 168/240/7
f 167/239/1 30/259/1 31/261/1
f 31/261/1 169/241/1 167/239/1
f 170/242/7 43/262/7 41/260/7
f 41/260/7 168/240/7 170/242/7
f 169/241/1 31/261/1 32/263/1
f 32/263/1 171/243/1 169/241/1
f 172/244/7 45/264/7 43/262/7
f 43/262/7 170/242/7 172/244/7
f 171/243/1 32/263/1 33/265/1
f 33/265/1 173/245/1 171/243/1
f 174/246/7 47/266/7 45/264/7
f 45/264/7 172/244/7 174/246/7
f 173/245/1 33/265/1 34/267/1
f 34/267/1 175/247/1 173/245/1
f 176/248/7 49/268/7 47/266/7
f 47/266/7 174/246/7 176/248/7
f 175/247/1 34/267/1 35/269/1
f 35/269/1 177/249/1 175/247/1
f 178/250/7 51/270/7 49/268/7
f 49/268/7 176/248/7 178/250/7
f 177/249/1 35/269/1 36/271/1
f 36/271/1 179/251/1 177/249/1
f 180/252/7 53/272/7 51/270/7
f 51/270/7 178/250/7 180/252/7

# Mesh
g DefaultWall_DefaultWall
usemtl initialShadingGroup
f 179/274/5 36/273/5 53/272/5
f 53/272/5 180/252/5 179/274/5
